<svg width="24" height="24" viewBox="0 0 24 24" fill="none" xmlns="http://www.w3.org/2000/svg">
<path d="M18.8788 10.4769L18.8781 10.4777L17.8195 11.541L17.8187 11.5418L8.48197 20.8785C8.05468 21.3058 7.52322 21.6195 6.94051 21.7932C6.94023 21.7933 6.93994 21.7934 6.93966 21.7935L1.30598 23.4513C1.30545 23.4514 1.30491 23.4516 1.30438 23.4517C1.08571 23.5136 0.850661 23.4546 0.683112 23.2897C0.520396 23.1296 0.460966 22.8952 0.52569 22.6778L0.526157 22.6762L2.18503 17.0341C2.18512 17.0338 2.18521 17.0335 2.18531 17.0332C2.35904 16.4505 2.67274 15.9191 3.10001 15.4918L12.4375 6.15433L13.4969 5.09496L13.673 4.91883L14.9085 6.15433L17.8195 9.06527L19.055 10.3008L18.8788 10.4769ZM7.99959 18.7242L7.49959 18.6277V18.2289H5.99959C5.86323 18.2289 5.74959 18.1153 5.74959 17.9789V16.4789V15.7398L5.06354 16.0148L3.99948 16.4414L3.87653 16.4907L3.79411 16.5943C3.6111 16.8246 3.46688 17.0932 3.38192 17.3895C3.38172 17.3902 3.38152 17.3909 3.38132 17.3915L2.30433 21.0486L2.04526 21.9283L2.92504 21.6695L6.59067 20.5914L6.59069 20.5915L6.59872 20.589C6.87792 20.5017 7.14258 20.367 7.37931 20.1835L7.48661 20.1003L7.53712 19.9743L7.83595 19.2289H7.99959V18.7289V18.7242ZM20.8215 8.52961L19.586 7.2941L16.675 4.38317L15.4411 3.14922L15.6188 2.97308L15.6203 2.97152L16.6797 1.91215L16.6809 1.91092L17.2093 1.37891H17.2129L17.3594 1.23246C18.336 0.255847 19.9179 0.255847 20.8945 1.23246L22.7362 3.07889L22.7367 3.07933C23.7133 4.05595 23.7133 5.6378 22.7367 6.61442L22.057 7.2941L20.9976 8.35348L20.8215 8.52961ZM8.38283 15.8575L15.1328 9.10746C15.6187 8.62157 15.6187 7.82687 15.1328 7.34098C14.6469 6.85509 13.8522 6.85509 13.3663 7.34098L6.61634 14.091C6.13046 14.5769 6.13046 15.3716 6.61634 15.8575C7.10223 16.3433 7.89694 16.3433 8.38283 15.8575Z" fill="black" stroke="black"/>
</svg>
